# xmcd CD database file
#
# Track frame offsets:
#	150
#	14265
#	27287
#	40125
#	53180
#	67290
#	82215
#	99265
#	109800
#	126270
#
# Disc length: 1984 seconds
#
# Revision: 0
# Processed by: cddbd v1.4PL0 Copyright (c) Steve Scherf et al.
# Submitted via: CdAid 2001.05.15.01
#
DISCID=8707be0a
DTITLE=Susan Jayne - The Bright Side of Morning
DYEAR=1900
DGENRE=
TTITLE0=One Mississippi
TTITLE1=Matter of Love
TTITLE2=Last Night You Turned Into You
TTITLE3=I'm Gonna Miss That Man
TTITLE4=What's to Think About
TTITLE5=Under the Weather
TTITLE6=Safe Inside (duet with Kirk Dillen)
TTITLE7=Give Me One Good Reason
TTITLE8=Ordinary Girl
TTITLE9=The Bright Side of Morning
EXTD=
EXTT0=
EXTT1=
EXTT2=
EXTT3=
EXTT4=
EXTT5=
EXTT6=
EXTT7=
EXTT8=
EXTT9=
PLAYORDER=
